Genre:Horror
Language:English
IMDb:http://www.imdb.com/title/tt2014264/
Source:DVD Thanks!
Encoder:Tony
Info:Keep Sake DVD Release Date Feb 2012


Format : AVI
Format/Info : Audio Video Interleave
File size : 744 MiB
Duration : 1h 40mn
Overall bit rate : 1 039 Kbps

Video
ID : 0
Format : MPEG-4 Visual
Format profile : Advanced Simple@L5
Format settings, BVOP : 1
Format settings, QPel : No
Format settings, GMC : No warppoints
Format settings, Matrix : Default (H.263)
Codec ID : XVID
Codec ID/Hint : XviD
Duration : 1h 40mn
Bit rate : 837 Kbps
Width : 640 pixels
Height : 272 pixels
Display aspect ratio : 2.35:1
Frame rate : 25.000 fps
Color space : YUV
Chroma subsampling : 4:2:0
Bit depth : 8 bits
Scan type : Progressive
Compression mode : Lossy
Bits/(Pixel*Frame) : 0.192
Stream size : 599 MiB (81%)
Writing library : XviD 1.2.1 (UTC 2008-12-04)

Audio
ID : 1
Format : AC-3
Format/Info : Audio Coding 3
Mode extension : CM (complete main)
Codec ID : 2000
Duration : 1h 40mn
Bit rate mode : Constant
Bit rate : 192 Kbps
Channel(s) : 2 channels
Channel positions : Front: L R
Sampling rate : 48.0 KHz
Bit depth : 16 bits
Compression mode : Lossy
Stream size : 138 MiB (18%)
Alignment : Aligned on interleaves
Interleave, duration : 40 ms (1.00 video frame)
Interleave, preload duration : 512 ms

 
http://img85.imageshack.us/img85/6752/vlcsnap2012022607h55m35.png
 
http://img9.imageshack.us/img9/9247/vlcsnap2012022607h56m22.png
 
http://img861.imageshack.us/img861/9167/vlcsnap2012022607h57m54.png
 
http://img812.imageshack.us/img812/5122/vlcsnap2012022607h58m13.png
